<svg width="1414" height="512" viewBox="0 0 1414 512" fill="none" xmlns="http://www.w3.org/2000/svg">
<path d="M128.064 109.334C127.683 100.81 129.011 92.2953 131.969 84.2917C134.927 76.2881 139.456 68.9568 145.289 62.729C151.121 56.5013 158.141 51.5027 165.934 48.0274C173.726 44.5521 182.136 42.6702 190.667 42.4924C199.197 42.3146 207.678 43.8445 215.609 46.992C223.54 50.1396 230.761 54.8413 236.848 60.8206C242.936 66.7999 247.766 73.9361 251.055 81.8095C254.344 89.6829 256.025 98.1344 256 106.667V384M128.064 109.334C115.524 112.558 103.883 118.593 94.0209 126.983C84.1591 135.373 76.3357 145.896 71.1433 157.757C65.9508 169.618 63.5255 182.505 64.0509 195.442C64.5763 208.379 68.0388 221.026 74.176 232.427C63.3851 241.194 54.8997 252.464 49.4579 265.258C44.016 278.051 41.7825 291.981 42.9517 305.835C44.1209 319.689 48.6574 333.047 56.1665 344.748C63.6756 356.448 73.9299 366.137 86.0373 372.971C84.5422 384.539 85.4344 396.29 88.6589 407.5C91.8834 418.709 97.3716 429.138 104.785 438.143C112.198 447.149 121.378 454.539 131.759 459.857C142.14 465.175 153.501 468.308 165.141 469.064C176.78 469.819 188.451 468.18 199.432 464.248C210.413 460.316 220.472 454.175 228.987 446.203C237.502 438.232 244.292 428.599 248.938 417.901C253.584 407.202 255.987 395.664 256 384M128.064 109.334C128.486 119.653 131.399 129.718 136.555 138.667M256 384H384C395.316 384 406.168 388.496 414.17 396.497C422.171 404.499 426.667 415.351 426.667 426.667V448M192 277.334C209.91 271.033 225.55 259.563 236.942 244.374C248.334 229.185 254.966 210.959 256 192M74.176 232.448C78.0787 229.27 82.2549 226.443 86.656 224M128 384C113.298 384.007 98.843 380.215 86.0373 372.992M256 277.334H341.333M256 170.667H426.667M341.333 170.667V106.667C341.333 95.3512 345.829 84.4987 353.83 76.4972C361.832 68.4956 372.684 64.0004 384 64.0004M352 277.334C352 283.225 347.224 288 341.333 288C335.442 288 330.667 283.225 330.667 277.334C330.667 271.443 335.442 266.667 341.333 266.667C347.224 266.667 352 271.443 352 277.334ZM394.667 64.0004C394.667 69.8915 389.891 74.6671 384 74.6671C378.109 74.6671 373.333 69.8915 373.333 64.0004C373.333 58.1094 378.109 53.3338 384 53.3338C389.891 53.3338 394.667 58.1094 394.667 64.0004ZM437.333 448C437.333 453.891 432.558 458.667 426.667 458.667C420.776 458.667 416 453.891 416 448C416 442.109 420.776 437.334 426.667 437.334C432.558 437.334 437.333 442.109 437.333 448ZM437.333 170.667C437.333 176.558 432.558 181.334 426.667 181.334C420.776 181.334 416 176.558 416 170.667C416 164.776 420.776 160 426.667 160C432.558 160 437.333 164.776 437.333 170.667Z" stroke="url(#paint0_linear_181577_2179)" stroke-width="24" stroke-linecap="round" stroke-linejoin="round"/>
<path d="M587.586 123.062V379H534.852V123.062H587.586ZM689.539 232.398V273.531H573.172V232.398H689.539ZM701.844 123.062V164.371H573.172V123.062H701.844ZM685.672 354.566C685.672 347.066 688.25 340.797 693.406 335.758C698.68 330.719 705.652 328.199 714.324 328.199C722.996 328.199 729.91 330.719 735.066 335.758C740.34 340.797 742.977 347.066 742.977 354.566C742.977 362.066 740.34 368.336 735.066 373.375C729.91 378.414 722.996 380.934 714.324 380.934C705.652 380.934 698.68 378.414 693.406 373.375C688.25 368.336 685.672 362.066 685.672 354.566ZM894.852 166.832L825.242 379H769.168L864.266 123.062H899.949L894.852 166.832ZM952.684 379L882.898 166.832L877.273 123.062H913.309L1008.93 379H952.684ZM949.52 283.727V325.035H814.344V283.727H949.52ZM1031.96 354.566C1031.96 347.066 1034.54 340.797 1039.7 335.758C1044.97 330.719 1051.94 328.199 1060.61 328.199C1069.29 328.199 1076.2 330.719 1081.36 335.758C1086.63 340.797 1089.27 347.066 1089.27 354.566C1089.27 362.066 1086.63 368.336 1081.36 373.375C1076.2 378.414 1069.29 380.934 1060.61 380.934C1051.94 380.934 1044.97 378.414 1039.7 373.375C1034.54 368.336 1031.96 362.066 1031.96 354.566ZM1301.61 337.867V379H1172.76V337.867H1301.61ZM1189.81 123.062V379H1137.08V123.062H1189.81ZM1331.14 354.566C1331.14 347.066 1333.72 340.797 1338.88 335.758C1344.15 330.719 1351.12 328.199 1359.79 328.199C1368.46 328.199 1375.38 330.719 1380.54 335.758C1385.81 340.797 1388.45 347.066 1388.45 354.566C1388.45 362.066 1385.81 368.336 1380.54 373.375C1375.38 378.414 1368.46 380.934 1359.79 380.934C1351.12 380.934 1344.15 378.414 1338.88 373.375C1333.72 368.336 1331.14 362.066 1331.14 354.566Z" fill="url(#paint1_linear_181577_2179)"/>
<defs>
<linearGradient id="paint0_linear_181577_2179" x1="418" y1="49.5" x2="68.5" y2="469" gradientUnits="userSpaceOnUse">
<stop stop-color="#9876FF"/>
<stop offset="0.995192" stop-color="#78A0FE"/>
</linearGradient>
<linearGradient id="paint1_linear_181577_2179" x1="702" y1="16" x2="1414" y2="446" gradientUnits="userSpaceOnUse">
<stop stop-color="#9876FF"/>
<stop offset="1" stop-color="#78A0FE"/>
</linearGradient>
</defs>
</svg>
